<svg width="23" height="16" viewBox="0 0 23 16" fill="none" xmlns="http://www.w3.org/2000/svg">
<g clip-path="url(#clip0_478_315)">
<path d="M0.573799 2.42647C0.907099 2.1598 1.2738 2.01814 1.6738 2.00147C2.0738 1.9848 2.4238 2.12647 2.7238 2.42647L11.5238 11.2265L20.3738 2.37647C20.6405 2.1098 20.9988 1.9848 21.4488 2.00147C21.8988 2.01814 22.2571 2.1598 22.5238 2.42647C22.8571 2.7598 23.0155 3.11814 22.9988 3.50147C22.9821 3.8848 22.8238 4.22647 22.5238 4.52647L12.5738 14.4765C12.4071 14.6431 12.2405 14.7598 12.0738 14.8265C11.9071 14.8931 11.7238 14.9265 11.5238 14.9265C11.3238 14.9265 11.1405 14.8931 10.9738 14.8265C10.8071 14.7598 10.6405 14.6431 10.4738 14.4765L0.573799 4.57647C0.2738 4.27647 0.132099 3.92647 0.1488 3.52647C0.165501 3.12647 0.307098 2.7598 0.573799 2.42647Z" fill="white"/>
</g>
<defs>
<clipPath id="clip0_478_315">
<rect width="16" height="23" fill="white" transform="matrix(0 1 -1 0 23 0)"/>
</clipPath>
</defs>
</svg>
